# xmcd CD database file
#
# Track frame offsets:
#	150
#	15439
#	32909
#	52563
#	63039
#	80457
#	101442
#	115838
#	133605
#	157099
#	173126
#	186712
#
# Disc length: 2692 seconds
#
# Revision: 0
# Processed by: cddbd v1.5.2PL0 Copyright (c) Steve Scherf et al.
# Submitted via: CDex 1.51
#
DISCID=920a820c
DTITLE=Toco - Outro Lugar
DYEAR=2006
DGENRE=Jazz
TTITLE0=Outro lugar
TTITLE1=Litoral
TTITLE2=Zum zum
TTITLE3=Assuntos banais
TTITLE4=Bom motivo - feat. Rosalia De Souza
TTITLE5=Samba noir
TTITLE6=Barracao
TTITLE7=Voz da Lapa
TTITLE8=Guarapiranga
TTITLE9=Contradicao - feat. Coralie Clement
TTITLE10=Simples
TTITLE11=Foolish samba
EXTD=YEAR: 2006
EXTT0=
EXTT1=
EXTT2=
EXTT3=
EXTT4=
EXTT5=
EXTT6=
EXTT7=
EXTT8=
EXTT9=
EXTT10=
EXTT11=
PLAYORDER=
